<svg viewBox="37.6 115.41 299.6050322327044 145.52870235294117" version="1.0" preserveAspectRatio="xMidYMid meet" zoomAndPan="magnify" xmlns:xlink="http://www.w3.org/1999/xlink" xmlns="http://www.w3.org/2000/svg" style="max-height: 500px" width="299.6050322327044" height="145.52870235294117"><path fill-rule="nonzero" fill-opacity="1" d="M 141.386719 216.769531 C 138.578125 216.476562 135.941406 216.417969 133.425781 215.894531 C 118.375 212.75 103.269531 200.921875 100.691406 181.464844 C 100.28125 178.550781 100.398438 175.523438 99.8125 172.667969 C 98.234375 164.804688 94.191406 158.570312 86.289062 155.832031 C 78.382812 153.09375 70.886719 154.433594 64.5625 159.910156 C 54.609375 168.53125 54.316406 186.007812 67.785156 193.933594 C 76.15625 198.882812 86.523438 197.835938 93.664062 191.253906 C 94.894531 190.144531 95.773438 188.628906 96.769531 187.347656 C 97.121094 186.882812 97.472656 186.476562 97.941406 185.777344 C 98.175781 186.359375 98.292969 186.648438 98.351562 187 C 99.871094 192.882812 102.507812 198.183594 106.3125 202.902344 C 107.660156 204.59375 107.660156 204.941406 106.195312 206.515625 C 105.667969 207.097656 105.023438 207.679688 104.382812 208.144531 C 86.640625 220.789062 65.675781 218.574219 50.863281 205.875 C 37.628906 194.515625 30.132812 168.300781 48.753906 147.734375 C 61.988281 133.171875 86.054688 129.5625 103.328125 142.785156 C 113.691406 150.707031 119.371094 161.542969 119.839844 174.648438 C 120.074219 181.117188 121.949219 186.707031 126.632812 191.308594 C 129.910156 194.574219 134.011719 195.972656 138.460938 196.785156 C 141.738281 197.367188 141.445312 196.667969 141.445312 200.28125 C 141.445312 205.175781 141.445312 210.011719 141.386719 214.902344 C 141.386719 215.371094 141.386719 215.894531 141.386719 216.769531 Z M 141.386719 216.769531" fill="#ffffff"/><path fill-rule="nonzero" fill-opacity="1" d="M 120.953125 144.648438 C 122.125 145.871094 123.121094 147.035156 124.230469 148.144531 C 126.574219 150.472656 128.976562 152.746094 131.316406 155.074219 C 131.609375 155.367188 131.785156 156.007812 131.609375 156.355469 C 128.800781 162.242188 125.871094 168.066406 122.652344 173.949219 C 122.59375 173.367188 122.417969 172.726562 122.417969 172.144531 C 122.359375 165.792969 120.425781 159.96875 117.089844 154.550781 C 116.855469 154.144531 116.679688 153.503906 116.855469 153.152344 C 118.199219 150.300781 119.546875 147.5625 120.953125 144.648438 Z M 120.953125 144.648438" fill="#f3bb1a"/><path fill-rule="nonzero" fill-opacity="1" d="M 121.949219 144.296875 C 123.058594 142.726562 123.410156 142.609375 124.933594 143.601562 C 125.8125 144.183594 126.75 144.765625 127.863281 145.171875 C 127.570312 144.53125 127.277344 143.949219 126.984375 143.308594 C 126.398438 142.144531 126.691406 141.09375 127.570312 140.164062 C 129.96875 137.597656 133.71875 137.308594 136.410156 139.578125 C 136.644531 139.753906 136.820312 139.929688 137.054688 140.164062 C 139.046875 142.027344 139.046875 142.027344 136.9375 144.125 C 136.292969 143.367188 135.707031 142.550781 135.0625 141.792969 C 134.183594 140.863281 133.132812 140.394531 131.84375 140.6875 C 130.085938 141.09375 129.207031 142.550781 129.910156 144.296875 C 130.964844 147.035156 132.3125 149.660156 133.542969 152.335938 C 133.660156 152.570312 133.777344 152.746094 133.835938 152.921875 C 132.605469 154.261719 132.136719 154.261719 131.316406 152.6875 C 129.851562 149.949219 127.746094 147.734375 125.402344 145.8125 C 124.347656 145.054688 123.058594 144.765625 121.949219 144.296875 Z M 121.949219 144.296875" fill="#f3bb1a"/><path fill-rule="nonzero" fill-opacity="1" d="M 160.945312 225.621094 C 158.425781 224.574219 156.320312 223.175781 154.621094 221.429688 C 152.921875 219.621094 151.695312 217.582031 150.933594 215.195312 C 150.171875 212.863281 149.761719 210.300781 149.761719 207.503906 L 149.761719 119.539062 L 174.121094 115.40625 L 174.121094 202.261719 C 174.121094 204.710938 174.53125 206.398438 175.40625 207.390625 C 176.285156 208.378906 177.867188 208.84375 180.269531 208.84375 C 181.378906 208.84375 182.667969 208.730469 184.015625 208.554688 C 185.421875 208.378906 186.652344 208.144531 187.761719 207.914062 L 190.046875 223.058594 C 188.523438 223.757812 185.890625 224.632812 182.257812 225.5625 C 178.628906 226.554688 174.53125 227.019531 170.019531 227.019531 C 166.507812 227.195312 163.464844 226.671875 160.945312 225.621094 Z M 160.945312 225.621094" fill="#ffffff"/><path fill-rule="nonzero" fill-opacity="1" d="M 310.554688 143.191406 C 310.554688 140.222656 311.371094 137.949219 313.011719 136.378906 C 314.652344 134.804688 316.644531 133.988281 319.042969 133.988281 C 320.566406 133.988281 321.972656 134.394531 323.140625 135.269531 C 324.3125 136.144531 325.191406 136.960938 325.660156 137.773438 L 337.371094 125.542969 C 334.910156 122.804688 331.984375 120.472656 328.644531 118.667969 C 325.308594 116.804688 320.800781 115.929688 315.179688 115.929688 C 311.199219 115.929688 307.507812 116.453125 304.171875 117.5625 C 300.832031 118.609375 297.902344 120.183594 295.445312 122.222656 C 292.988281 124.261719 291.054688 126.765625 289.765625 129.675781 C 288.417969 132.589844 287.773438 135.910156 287.773438 139.699219 C 287.773438 141.5625 287.949219 143.25 288.300781 144.882812 C 288.65625 146.511719 289.121094 148.085938 289.765625 149.660156 L 277.878906 149.660156 L 277.878906 168.066406 L 289.765625 168.066406 L 289.765625 224.398438 C 289.765625 228.300781 288.417969 231.679688 285.667969 234.59375 C 285.316406 234.945312 285.023438 235.292969 284.613281 235.644531 L 295.152344 255.683594 C 295.152344 255.683594 295.152344 255.683594 295.210938 255.683594 C 298.667969 253.816406 301.769531 251.546875 304.523438 248.808594 C 307.273438 246.070312 309.558594 242.691406 311.371094 238.671875 C 313.1875 234.710938 314.066406 229.757812 314.066406 223.933594 L 314.066406 168.007812 L 327.769531 168.007812 L 330.871094 149.601562 L 311.140625 149.601562 C 310.726562 147.679688 310.554688 145.582031 310.554688 143.191406 Z M 310.554688 143.191406" fill="#ffffff"/><path fill-rule="nonzero" fill-opacity="1" d="M 265.40625 189.15625 L 266.050781 149.660156 L 241.574219 149.660156 L 241.574219 188.863281 C 241.574219 192.007812 241.222656 194.863281 240.523438 197.425781 C 239.820312 199.992188 238.882812 202.144531 237.769531 203.953125 C 236.65625 205.757812 235.367188 207.097656 234.019531 208.085938 C 232.617188 209.078125 231.269531 209.542969 229.921875 209.542969 C 227.582031 209.542969 225.941406 208.4375 225.0625 206.222656 C 224.183594 204.011719 223.773438 201.15625 223.773438 197.542969 L 223.773438 149.601562 L 199.296875 149.601562 L 199.296875 200.804688 C 199.296875 204.882812 199.707031 208.554688 200.46875 211.816406 C 201.230469 215.078125 202.519531 217.875 204.332031 220.144531 C 206.148438 222.417969 208.433594 224.222656 211.246094 225.503906 C 214.054688 226.789062 217.507812 227.429688 221.492188 227.429688 C 226.820312 227.429688 231.796875 226.378906 236.421875 224.339844 C 241.046875 222.300781 244.675781 218.980469 247.371094 214.378906 C 248.191406 216.417969 248.777344 218.28125 249.070312 219.972656 C 249.363281 221.660156 249.539062 223.523438 249.539062 225.5625 C 249.539062 229.933594 248.308594 233.3125 245.789062 235.699219 C 243.273438 238.03125 239.9375 239.253906 235.835938 239.253906 C 232.03125 239.253906 228.457031 238.847656 225.0625 237.972656 C 221.664062 237.097656 217.742188 235.875 213.175781 234.359375 L 207.496094 253.058594 C 212.414062 255.097656 217.453125 256.671875 222.601562 257.835938 C 227.753906 258.945312 232.675781 259.527344 237.417969 259.527344 C 247.898438 259.527344 256.15625 256.613281 262.1875 250.847656 C 263.476562 249.625 264.585938 248.339844 265.582031 246.886719 L 265.582031 189.15625 Z M 265.40625 189.15625" fill="#ffffff"/></svg>